<?xml version="1.0" encoding="UTF-8" standalone="no" ?>
<!DOCTYPE svg PUBLIC "-//W3C//DTD SVG 1.1//EN" "http://www.w3.org/Graphics/SVG/1.1/DTD/svg11.dtd">
<svg xmlns="http://www.w3.org/2000/svg" xmlns:xlink="http://www.w3.org/1999/xlink" version="1.1" width="327" height="327" viewBox="0 0 1080 1080" xml:space="preserve">
<desc>Created with Fabric.js 5.2.4</desc>
<defs>
</defs>
<g transform="matrix(1 0 0 1 540 540)" id="f444d27d-04ef-429d-a377-a3bac8b5e7bf"  >
<rect style="stroke: none; stroke-width: 1; stroke-dasharray: none; stroke-linecap: butt; stroke-dashoffset: 0; stroke-linejoin: miter; stroke-miterlimit: 4; fill: rgb(255,255,255); fill-rule: nonzero; opacity: 1; visibility: hidden;" vector-effect="non-scaling-stroke"  x="-540" y="-540" rx="0" ry="0" width="500" height="500" />
</g>
<g transform="matrix(1 0 0 1 540 540)" id="424b09de-29ca-46d0-baab-ce88d7e790dd"  >
</g>
<g transform="matrix(3.3 0 0 3.3 540 540)"  >
<path style="stroke: none; stroke-width: 1; stroke-dasharray: none; stroke-linecap: butt; stroke-dashoffset: 0; stroke-linejoin: miter; stroke-miterlimit: 4; fill: rgb(21,171,144); fill-rule: nonzero; opacity: 1;"  transform=" translate(-163.5, -84.92)" d="M 327 46.7643 C 327 30.8894 314.633 17.7625 298.786 16.8175 L 31.7858 0.895483 C 14.5457 -0.132597 0 13.5715 0 30.8423 L 0 139 C 0 155.569 13.4315 169 30 169 L 297 169 C 313.569 169 327 155.569 327 139 L 327 46.7643 Z" stroke-linecap="round" />
</g>
</svg>